<svg width="20" height="20" viewBox="0 0 20 20" fill="none" xmlns="http://www.w3.org/2000/svg">
<g clip-path="url(#clip0_1114_233)">
<path d="M8.125 0.535156C7.62772 0.535156 7.15081 0.770328 6.79917 1.18894C6.44754 1.60754 6.25 2.1753 6.25 2.7673V3.51135H1.875C1.37772 3.51135 0.900805 3.74652 0.549175 4.16513C0.197544 4.58373 0 5.15149 0 5.74349L0 7.80301L9.5175 10.8238C9.83366 10.9241 10.1663 10.9241 10.4825 10.8238L20 7.80301V5.74349C20 5.15149 19.8025 4.58373 19.4508 4.16513C19.0992 3.74652 18.6223 3.51135 18.125 3.51135H13.75V2.7673C13.75 2.1753 13.5525 1.60754 13.2008 1.18894C12.8492 0.770328 12.3723 0.535156 11.875 0.535156H8.125ZM8.125 2.02325H11.875C12.0408 2.02325 12.1997 2.10164 12.3169 2.24118C12.4342 2.38071 12.5 2.56997 12.5 2.7673V3.51135H7.5V2.7673C7.5 2.56997 7.56585 2.38071 7.68306 2.24118C7.80027 2.10164 7.95924 2.02325 8.125 2.02325Z" fill="#ACB9CD"/>
<path d="M0 17.648C0 18.24 0.197544 18.8077 0.549175 19.2263C0.900805 19.6449 1.37772 19.8801 1.875 19.8801H18.125C18.6223 19.8801 19.0992 19.6449 19.4508 19.2263C19.8025 18.8077 20 18.24 20 17.648V9.24023L10.1612 12.3608C10.0556 12.3944 9.9444 12.3944 9.83875 12.3608L0 9.24023V17.648Z" fill="#ACB9CD"/>
</g>
<defs>
<clipPath id="clip0_1114_233">
<rect width="20" height="20" fill="white"/>
</clipPath>
</defs>
</svg>
