<svg width="20" height="20" viewBox="0 0 20 20" fill="none" xmlns="http://www.w3.org/2000/svg">
<g clip-path="url(#clip0_1151_53)">
<path d="M0 2.60417C0 1.9135 0.263392 1.25112 0.732233 0.762743C1.20107 0.274367 1.83696 0 2.5 0L17.5 0C18.163 0 18.7989 0.274367 19.2678 0.762743C19.7366 1.25112 20 1.9135 20 2.60417V13.0208C20 13.7115 19.7366 14.3739 19.2678 14.8623C18.7989 15.3506 18.163 15.625 17.5 15.625H14.375C14.1809 15.625 13.9896 15.6721 13.816 15.7625C13.6424 15.8529 13.4914 15.9841 13.375 16.1458L11 19.444C10.8836 19.6057 10.7326 19.737 10.559 19.8274C10.3854 19.9178 10.1941 19.9648 10 19.9648C9.80594 19.9648 9.61455 19.9178 9.44098 19.8274C9.26741 19.737 9.11643 19.6057 9 19.444L6.625 16.1458C6.50857 15.9841 6.35759 15.8529 6.18402 15.7625C6.01045 15.6721 5.81906 15.625 5.625 15.625H2.5C1.83696 15.625 1.20107 15.3506 0.732233 14.8623C0.263392 14.3739 0 13.7115 0 13.0208V2.60417ZM4.375 3.90625C4.20924 3.90625 4.05027 3.97484 3.93306 4.09694C3.81585 4.21903 3.75 4.38463 3.75 4.55729C3.75 4.72996 3.81585 4.89555 3.93306 5.01765C4.05027 5.13974 4.20924 5.20833 4.375 5.20833H15.625C15.7908 5.20833 15.9497 5.13974 16.0669 5.01765C16.1842 4.89555 16.25 4.72996 16.25 4.55729C16.25 4.38463 16.1842 4.21903 16.0669 4.09694C15.9497 3.97484 15.7908 3.90625 15.625 3.90625H4.375ZM4.375 7.16146C4.20924 7.16146 4.05027 7.23005 3.93306 7.35215C3.81585 7.47424 3.75 7.63983 3.75 7.8125C3.75 7.98517 3.81585 8.15076 3.93306 8.27286C4.05027 8.39495 4.20924 8.46354 4.375 8.46354H15.625C15.7908 8.46354 15.9497 8.39495 16.0669 8.27286C16.1842 8.15076 16.25 7.98517 16.25 7.8125C16.25 7.63983 16.1842 7.47424 16.0669 7.35215C15.9497 7.23005 15.7908 7.16146 15.625 7.16146H4.375ZM4.375 10.4167C4.20924 10.4167 4.05027 10.4853 3.93306 10.6074C3.81585 10.7294 3.75 10.895 3.75 11.0677C3.75 11.2404 3.81585 11.406 3.93306 11.5281C4.05027 11.6502 4.20924 11.7188 4.375 11.7188H10.625C10.7908 11.7188 10.9497 11.6502 11.0669 11.5281C11.1842 11.406 11.25 11.2404 11.25 11.0677C11.25 10.895 11.1842 10.7294 11.0669 10.6074C10.9497 10.4853 10.7908 10.4167 10.625 10.4167H4.375Z" fill="#ACB9CD"/>
</g>
<defs>
<clipPath id="clip0_1151_53">
<rect width="20" height="20" fill="white"/>
</clipPath>
</defs>
</svg>
