<svg width="20" height="20" viewBox="0 0 20 20" fill="none" xmlns="http://www.w3.org/2000/svg">
<g clip-path="url(#clip0_1151_48)">
<path d="M8.125 0.535645C7.62772 0.535645 7.15081 0.770816 6.79917 1.18942C6.44754 1.60803 6.25 2.17579 6.25 2.76779V3.51183H1.875C1.37772 3.51183 0.900805 3.74701 0.549175 4.16561C0.197544 4.58422 0 5.15198 0 5.74398L0 7.8035L9.5175 10.8243C9.83366 10.9246 10.1663 10.9246 10.4825 10.8243L20 7.8035V5.74398C20 5.15198 19.8025 4.58422 19.4508 4.16561C19.0992 3.74701 18.6223 3.51183 18.125 3.51183H13.75V2.76779C13.75 2.17579 13.5525 1.60803 13.2008 1.18942C12.8492 0.770816 12.3723 0.535645 11.875 0.535645H8.125ZM8.125 2.02374H11.875C12.0408 2.02374 12.1997 2.10213 12.3169 2.24167C12.4342 2.3812 12.5 2.57045 12.5 2.76779V3.51183H7.5V2.76779C7.5 2.57045 7.56585 2.3812 7.68306 2.24167C7.80027 2.10213 7.95924 2.02374 8.125 2.02374V2.02374Z" fill="#ACB9CD"/>
<path d="M0 17.6489C0 18.241 0.197544 18.8087 0.549175 19.2273C0.900805 19.6459 1.37772 19.8811 1.875 19.8811H18.125C18.6223 19.8811 19.0992 19.6459 19.4508 19.2273C19.8025 18.8087 20 18.241 20 17.6489V9.24121L10.1612 12.3617C10.0556 12.3953 9.9444 12.3953 9.83875 12.3617L0 9.24121V17.6489Z" fill="#ACB9CD"/>
</g>
<defs>
<clipPath id="clip0_1151_48">
<rect width="20" height="20" fill="white"/>
</clipPath>
</defs>
</svg>
