<svg width="20" height="20" viewBox="0 0 20 20" fill="none" xmlns="http://www.w3.org/2000/svg">
<g clip-path="url(#clip0_1151_55)">
<path d="M0.489136 2.5273C0.489136 1.98678 0.703858 1.46839 1.08606 1.08619C1.46827 0.70398 1.98666 0.489258 2.52718 0.489258H6.60327C7.14379 0.489258 7.66217 0.70398 8.04438 1.08619C8.42659 1.46839 8.64131 1.98678 8.64131 2.5273V6.60339C8.64131 7.14391 8.42659 7.6623 8.04438 8.0445C7.66217 8.42671 7.14379 8.64143 6.60327 8.64143H2.52718C1.98666 8.64143 1.46827 8.42671 1.08606 8.0445C0.703858 7.6623 0.489136 7.14391 0.489136 6.60339V2.5273ZM11.3587 2.5273C11.3587 1.98678 11.5734 1.46839 11.9556 1.08619C12.3378 0.70398 12.8562 0.489258 13.3967 0.489258H17.4728C18.0134 0.489258 18.5317 0.70398 18.9139 1.08619C19.2962 1.46839 19.5109 1.98678 19.5109 2.5273V6.60339C19.5109 7.14391 19.2962 7.6623 18.9139 8.0445C18.5317 8.42671 18.0134 8.64143 17.4728 8.64143H13.3967C12.8562 8.64143 12.3378 8.42671 11.9556 8.0445C11.5734 7.6623 11.3587 7.14391 11.3587 6.60339V2.5273ZM0.489136 13.3969C0.489136 12.8563 0.703858 12.338 1.08606 11.9558C1.46827 11.5735 1.98666 11.3588 2.52718 11.3588H6.60327C7.14379 11.3588 7.66217 11.5735 8.04438 11.9558C8.42659 12.338 8.64131 12.8563 8.64131 13.3969V17.473C8.64131 18.0135 8.42659 18.5319 8.04438 18.9141C7.66217 19.2963 7.14379 19.511 6.60327 19.511H2.52718C1.98666 19.511 1.46827 19.2963 1.08606 18.9141C0.703858 18.5319 0.489136 18.0135 0.489136 17.473V13.3969ZM11.3587 13.3969C11.3587 12.8563 11.5734 12.338 11.9556 11.9558C12.3378 11.5735 12.8562 11.3588 13.3967 11.3588H17.4728C18.0134 11.3588 18.5317 11.5735 18.9139 11.9558C19.2962 12.338 19.5109 12.8563 19.5109 13.3969V17.473C19.5109 18.0135 19.2962 18.5319 18.9139 18.9141C18.5317 19.2963 18.0134 19.511 17.4728 19.511H13.3967C12.8562 19.511 12.3378 19.2963 11.9556 18.9141C11.5734 18.5319 11.3587 18.0135 11.3587 17.473V13.3969Z" fill="#ACB9CD"/>
</g>
<defs>
<clipPath id="clip0_1151_55">
<rect width="20" height="20" fill="white"/>
</clipPath>
</defs>
</svg>
