<svg width="20" height="20" viewBox="0 0 20 20" fill="none" xmlns="http://www.w3.org/2000/svg">
<path d="M0.489258 2.52632C0.489258 1.9858 0.70398 1.46742 1.08619 1.08521C1.46839 0.703003 1.98678 0.488281 2.5273 0.488281H6.60339C7.14391 0.488281 7.6623 0.703003 8.0445 1.08521C8.42671 1.46742 8.64143 1.9858 8.64143 2.52632V6.60241C8.64143 7.14293 8.42671 7.66132 8.0445 8.04353C7.6623 8.42573 7.14391 8.64046 6.60339 8.64046H2.5273C1.98678 8.64046 1.46839 8.42573 1.08619 8.04353C0.70398 7.66132 0.489258 7.14293 0.489258 6.60241V2.52632ZM11.3588 2.52632C11.3588 1.9858 11.5735 1.46742 11.9558 1.08521C12.338 0.703003 12.8563 0.488281 13.3969 0.488281H17.473C18.0135 0.488281 18.5319 0.703003 18.9141 1.08521C19.2963 1.46742 19.511 1.9858 19.511 2.52632V6.60241C19.511 7.14293 19.2963 7.66132 18.9141 8.04353C18.5319 8.42573 18.0135 8.64046 17.473 8.64046H13.3969C12.8563 8.64046 12.338 8.42573 11.9558 8.04353C11.5735 7.66132 11.3588 7.14293 11.3588 6.60241V2.52632ZM0.489258 13.3959C0.489258 12.8554 0.70398 12.337 1.08619 11.9548C1.46839 11.5726 1.98678 11.3578 2.5273 11.3578H6.60339C7.14391 11.3578 7.6623 11.5726 8.0445 11.9548C8.42671 12.337 8.64143 12.8554 8.64143 13.3959V17.472C8.64143 18.0125 8.42671 18.5309 8.0445 18.9131C7.6623 19.2953 7.14391 19.51 6.60339 19.51H2.5273C1.98678 19.51 1.46839 19.2953 1.08619 18.9131C0.70398 18.5309 0.489258 18.0125 0.489258 17.472V13.3959ZM11.3588 13.3959C11.3588 12.8554 11.5735 12.337 11.9558 11.9548C12.338 11.5726 12.8563 11.3578 13.3969 11.3578H17.473C18.0135 11.3578 18.5319 11.5726 18.9141 11.9548C19.2963 12.337 19.511 12.8554 19.511 13.3959V17.472C19.511 18.0125 19.2963 18.5309 18.9141 18.9131C18.5319 19.2953 18.0135 19.51 17.473 19.51H13.3969C12.8563 19.51 12.338 19.2953 11.9558 18.9131C11.5735 18.5309 11.3588 18.0125 11.3588 17.472V13.3959Z" fill="#ACB9CD"/>
</svg>
